<?xml version="1.0" encoding="UTF-8"?>
<!DOCTYPE svg PUBLIC "-//W3C//DTD SVG 1.1//EN" "http://www.w3.org/Graphics/SVG/1.1/DTD/svg11.dtd">
<!-- Creator: CorelDRAW X7 -->
<svg xmlns="http://www.w3.org/2000/svg" xml:space="preserve" width="6cm" height="2.58001cm" version="1.1" style="shape-rendering:geometricPrecision; text-rendering:geometricPrecision; image-rendering:optimizeQuality; fill-rule:evenodd; clip-rule:evenodd"
viewBox="0 0 6106 2626"
 xmlns:xlink="http://www.w3.org/1999/xlink">
 <defs>
  <style type="text/css">
   <![CDATA[
    .fil2 {fill:#005D8D}
    .fil1 {fill:#233946}
    .fil0 {fill:#005D8D;fill-rule:nonzero}
   ]]>
  </style>
 </defs>
 <g id="Layer_x0020_1">
  <metadata id="CorelCorpID_0Corel-Layer"/>
  <g id="_2319534937152">
   <polygon class="fil0" points="165,2163 4,2163 4,2041 472,2041 472,2163 310,2163 310,2613 165,2613 "/>
   <polygon id="1" class="fil0" points="587,2041 993,2041 993,2163 732,2163 732,2270 922,2270 922,2384 732,2384 732,2491 993,2491 993,2613 587,2613 "/>
   <path id="2" class="fil0" d="M1403 2626c-62,0 -117,-12 -164,-36 -47,-24 -84,-59 -109,-104 -26,-45 -39,-98 -39,-158 0,-61 13,-114 39,-159 25,-45 62,-79 109,-104 47,-24 102,-36 164,-36 41,0 77,4 110,12 32,8 62,21 89,39l0 137c-24,-19 -51,-33 -82,-41 -30,-9 -65,-14 -104,-14 -56,0 -100,15 -130,44 -31,29 -46,70 -46,122 0,52 15,92 46,122 31,29 74,44 130,44 39,0 75,-5 106,-14 31,-9 60,-24 86,-44l0 137c-51,35 -120,53 -205,53z"/>
   <polygon id="3" class="fil0" points="1735,2041 1880,2041 1880,2262 2104,2262 2104,2041 2249,2041 2249,2613 2104,2613 2104,2383 1880,2383 1880,2613 1735,2613 "/>
   <polygon id="4" class="fil0" points="2393,2041 2536,2041 2746,2382 2746,2041 2891,2041 2891,2613 2749,2613 2538,2272 2538,2613 2393,2613 "/>
   <path id="5" class="fil0" d="M3326 2626c-58,0 -110,-13 -157,-38 -47,-25 -83,-60 -110,-105 -27,-45 -41,-97 -41,-155 0,-59 14,-110 41,-156 27,-45 63,-80 110,-105 47,-25 99,-38 157,-38 57,0 109,13 156,38 46,25 83,60 110,105 27,46 40,97 40,156 0,58 -13,110 -40,155 -27,45 -64,80 -110,105 -47,25 -99,38 -156,38zm0 -136c29,0 55,-7 79,-20 24,-13 43,-32 58,-56 14,-25 21,-53 21,-86 0,-33 -7,-62 -21,-86 -14,-24 -33,-43 -57,-56 -24,-14 -51,-20 -80,-20 -30,0 -57,6 -81,20 -24,13 -43,32 -57,56 -14,24 -21,53 -21,86 0,33 7,61 21,86 14,24 33,43 57,56 24,13 51,20 81,20z"/>
   <polygon id="6" class="fil0" points="3759,2041 3904,2041 3904,2491 4153,2491 4153,2613 3759,2613 "/>
   <path id="7" class="fil0" d="M4526 2626c-58,0 -110,-13 -157,-38 -47,-25 -83,-60 -110,-105 -27,-45 -41,-97 -41,-155 0,-59 14,-110 41,-156 27,-45 63,-80 110,-105 47,-25 99,-38 157,-38 57,0 109,13 156,38 46,25 83,60 110,105 27,46 40,97 40,156 0,58 -13,110 -40,155 -27,45 -64,80 -110,105 -47,25 -99,38 -156,38zm0 -136c29,0 55,-7 79,-20 24,-13 43,-32 58,-56 14,-25 21,-53 21,-86 0,-33 -7,-62 -21,-86 -14,-24 -33,-43 -57,-56 -24,-14 -51,-20 -80,-20 -30,0 -57,6 -81,20 -24,13 -43,32 -57,56 -14,24 -21,53 -21,86 0,33 7,61 21,86 14,24 33,43 57,56 25,13 51,20 81,20z"/>
   <path id="8" class="fil0" d="M5242 2626c-62,0 -117,-12 -164,-36 -47,-24 -84,-59 -109,-104 -26,-45 -39,-98 -39,-158 0,-61 13,-114 39,-159 25,-45 62,-79 109,-104 47,-24 102,-36 164,-36 42,0 78,4 110,12 32,8 62,20 89,38l0 137c-24,-19 -51,-32 -81,-41 -31,-8 -65,-13 -105,-13 -34,0 -64,7 -90,20 -27,14 -48,33 -63,58 -15,25 -23,54 -23,88 0,52 15,93 46,123 30,30 71,45 123,45 29,0 53,-5 73,-15l0 -92 -88 0 0 -101 225 0 0 285c-58,35 -130,53 -216,53z"/>
   <polygon id="9" class="fil0" points="5743,2396 5532,2041 5687,2041 5816,2263 5951,2041 6105,2041 5888,2396 5888,2613 5743,2613 "/>
   <path class="fil1" d="M4537 1349l-229 0 0 -1045c150,0 316,-15 453,40 176,72 278,260 278,445 0,165 -21,306 -137,422 -97,97 -221,138 -365,138zm-591 -1336l0 1636 622 0c235,0 508,-88 662,-272 247,-294 232,-834 4,-1087 -46,-51 -36,-39 -83,-84 -65,-62 -199,-131 -285,-156 -124,-35 -234,-50 -391,-50l-516 0c-10,0 -13,3 -13,13z"/>
   <path class="fil1" d="M591 829l-225 0c-10,0 -13,-3 -13,-13l0 -478c0,-10 3,-14 13,-14 137,0 360,-13 460,43 34,19 60,42 78,76 14,27 26,86 26,127 0,208 -131,259 -339,259zm-591 820l353 0 0 -526 357 0c91,0 171,-18 241,-42 190,-64 327,-231 336,-436l0 -136c-5,-117 -74,-264 -162,-334 -54,-43 -110,-80 -179,-103 -70,-24 -154,-41 -245,-41l-701 0 0 1618z"/>
   <polygon class="fil1" points="5745,1649 6106,1649 6106,0 5745,0 "/>
   <g>
    <path class="fil1" d="M1318 1644l366 0 239 -667c6,-21 15,-43 24,-65 16,-42 119,-318 121,-339l9 0c18,81 123,269 176,345 6,9 9,15 16,25 146,214 325,364 546,498 131,79 321,143 466,175 116,26 209,33 334,33l0 -390c-380,0 -688,-168 -878,-362 -27,-27 -52,-49 -76,-80 -11,-15 -22,-27 -34,-41 -12,-16 -24,-30 -35,-46 -21,-30 -41,-62 -60,-95 -111,-187 -178,-408 -178,-635l-418 0 -37 102c-14,36 -25,68 -39,103l-154 409c-13,34 -27,69 -39,103l-194 515c-27,68 -51,134 -77,204l-78 208z"/>
    <path class="fil2" d="M2628 54c0,174 60,343 132,473 38,67 125,186 188,236 64,51 77,77 172,130 76,43 169,86 255,105 92,21 138,29 240,29l0 -392c-166,0 -317,-70 -426,-181 -119,-122 -178,-272 -178,-454l-383 0 0 54z"/>
    <path class="fil2" d="M3276 27c0,63 33,136 68,183 11,15 27,30 41,43 45,47 103,73 167,86 9,2 22,3 37,4 16,2 26,9 26,-10l0 -333 -339 0 0 27z"/>
   </g>
  </g>
 </g>
</svg>
